{"title":"MacGyver.Complete.S02.DVDRip.XviD_MEDiEVAL","uid":5145747,"size":8071210862,"categoryP":"video","categoryS":"tv_shows","magnet":"?xt=urn:btih:1504c5d144f60e7e94fe0a5b62d44c1112ee982a&amp;dn=MacGyver.Complete.S02.DVDRip.XviD_MEDiEVAL&amp;tr=udp%3A%2F%2Ftracker.openbittorrent.com%3A80&amp;tr=udp%3A%2F%2Fopen.demonii.com%3A1337&amp;tr=udp%3A%2F%2Ftracker.coppersurfer.tk%3A6969&amp;tr=udp%3A%2F%2Fexodus.desync.com%3A6969","seeders":0,"leechers":1,"uploader":"finski91","files":24,"time":1257209281,"description":"General\nComplete name                    : MacGyver.S02E13.Soft.Touch.DVDRip.XviD-MEDiEVAL.avi\nFormat                           : AVI\nFormat/Info                      : Audio Video Interleave\nFile size                        : 349 MiB\nDuration                         : 47mn 42s\nOverall bit rate                 : 1 023 Kbps\nWriting application              : VirtualDubMod 1.5.10.1 (build 2439/release)\nWriting library                  : VirtualDubMod build 2439/release\n\nVideo\nID                               : 0\nFormat                           : MPEG-4 Visual\nFormat profile                   : AdvancedSimple@L5\nFormat settings, BVOP            : Yes\nFormat settings, QPel            : No\nFormat settings, GMC             : No warppoints\nFormat settings, Matrix          : Default (MPEG)\nMuxing mode                      : Packed bitstream\nCodec ID                         : XVID\nCodec ID/Hint                    : XviD\nDuration                         : 47mn 42s\nBit rate                         : 903 Kbps\nWidth                            : 512 pixels\nHeight                           : 384 pixels\nDisplay aspect ratio             : 4:3\nFrame rate                       : 23.976 fps\nResolution                       : 24 bits\nColorimetry                      : 4:2:0\nScan type                        : Progressive\nBits/(Pixel*Frame)               : 0.191\nStream size                      : 308 MiB (88%)\nWriting library                  : XviD 1.1.0 Beta2 (UTC 2005-04-04)\n\nAudio\nID                               : 1\nFormat                           : MPEG Audio\nFormat version                   : Version 1\nFormat profile                   : Layer 3\nCodec ID                         : 55\nCodec ID/Hint                    : MP3\nDuration                         : 47mn 42s\nBit rate mode                    : Variable\nBit rate                         : 108 Kbps\nNominal bit rate                 : 112 Kbps\nChannel(s)                       : 1 channel\nSampling rate                    : 48.0 KHz\nResolution                       : 16 bits\nStream size                      : 36.9 MiB (11%)\nAlignment                        : Aligned on interleaves\nInterleave, duration             : 24 ms (0.58 video frame)\nInterleave, preload duration     : 497 ms\nWriting library                  : LAME3.90.\nEncoding settings                : -m m -V 0 -q 5 -lowpass 19.4 --abr 112\n\n","torrent":{"xt":"urn:btih:1504c5d144f60e7e94fe0a5b62d44c1112ee982a","amp;dn":"MacGyver.Complete.S02.DVDRip.XviD_MEDiEVAL","amp;tr":["udp%3A%2F%2Ftracker.openbittorrent.com%3A80","udp%3A%2F%2Fopen.demonii.com%3A1337","udp%3A%2F%2Ftracker.coppersurfer.tk%3A6969","udp%3A%2F%2Fexodus.desync.com%3A6969"],"infoHash":"1504c5d144f60e7e94fe0a5b62d44c1112ee982a","infoHashBuffer":{"type":"Buffer","data":[21,4,197,209,68,246,14,126,148,254,10,91,98,212,76,17,18,238,152,42]},"announce":[],"urlList":[]}}